<svg width="16" height="16" viewBox="0 0 16 16" fill="none" xmlns="http://www.w3.org/2000/svg">
<circle cx="8" cy="8" r="8" fill="#E61E1E"/>
<path d="M11.0931 6.224L8.61507 6.644C8.60574 6.62533 8.6104 6.56 8.62907 6.448C8.64774 6.32667 8.6244 6.19133 8.55907 6.042C8.49374 5.88333 8.3864 5.79 8.23707 5.762C8.08774 5.734 7.91507 5.79467 7.71907 5.944C7.5324 6.09333 7.4064 6.27533 7.34107 6.49C7.27574 6.70467 7.3084 6.924 7.43907 7.148C7.51374 7.24133 7.66774 7.316 7.90107 7.372C8.14374 7.428 8.4144 7.47467 8.71307 7.512C9.02107 7.54933 9.34307 7.61467 9.67907 7.708C10.0244 7.80133 10.3371 7.92267 10.6171 8.072C10.8971 8.212 11.1304 8.43133 11.3171 8.73C11.5037 9.02867 11.6017 9.388 11.6111 9.808C11.6111 10.2373 11.5177 10.648 11.3311 11.04C11.1444 11.432 10.8877 11.7773 10.5611 12.076C10.2344 12.3653 9.83774 12.594 9.37107 12.762C8.9044 12.93 8.40974 13.0187 7.88707 13.028C7.3644 13.0373 6.79507 12.9393 6.17907 12.734C5.56307 12.5193 4.96107 12.202 4.37307 11.782L5.63307 9.682C5.88507 9.92467 6.24907 10.1393 6.72507 10.326C7.20107 10.5033 7.6444 10.592 8.05507 10.592C8.47507 10.5827 8.71774 10.4613 8.78307 10.228C8.8204 10.116 8.7364 10.0133 8.53107 9.92C8.33507 9.82667 8.07374 9.74733 7.74707 9.682C7.4204 9.60733 7.06574 9.50467 6.68307 9.374C6.3004 9.24333 5.94107 9.094 5.60507 8.926C5.2784 8.74867 5.0124 8.50133 4.80707 8.184C4.60174 7.86667 4.51307 7.498 4.54107 7.078C4.61574 5.78067 5.14307 4.754 6.12307 3.998C6.92574 3.382 7.79374 3.10667 8.72707 3.172C9.66974 3.24667 10.3464 3.662 10.7571 4.418C11.0277 4.91267 11.1397 5.51467 11.0931 6.224Z" fill="white"/>
</svg>
